<svg width="26" height="24" viewBox="0 0 26 24" fill="none" xmlns="http://www.w3.org/2000/svg">
<path d="M18.7051 4.72731L12.1249 9.86778C10.0443 8.53647 7.2668 8.58713 5.21002 10.1939C2.60161 12.2316 2.13782 16.0075 4.17554 18.6159C6.21326 21.2243 9.98912 21.6881 12.5975 19.6504C14.6543 18.0436 15.3757 15.3609 14.5874 13.0199L14.8633 12.8045L17.6706 13.1493L18.0154 10.342L20.8227 10.6868L21.4878 5.04061L18.7051 4.72731ZM10.7507 17.2863C9.45039 18.302 7.55544 18.0693 6.53966 16.769C5.52388 15.4688 5.75663 13.5738 7.0569 12.558C8.35716 11.5422 10.2521 11.775 11.2679 13.0753C12.2837 14.3755 12.0509 16.2705 10.7507 17.2863Z" fill="#E3E3E3"/>
</svg>
